<svg xmlns="http://www.w3.org/2000/svg" xmlns:xlink="http://www.w3.org/1999/xlink"><symbol viewBox="0 0 48 48" id="about"><path fill="#2196F3" d="M37 40H11l-6 6V12c0-3.3 2.7-6 6-6h26c3.3 0 6 2.7 6 6v22c0 3.3-2.7 6-6 6z"/><g fill="#fff"><path d="M22 20h4v11h-4z"/><circle cx="24" cy="15" r="2"/></g></symbol><symbol viewBox="0 0 48 48" id="approval"><path fill="#8BC34A" d="M24 3l4.7 3.6 5.8-.8 2.2 5.5 5.5 2.2-.8 5.8L45 24l-3.6 4.7.8 5.8-5.5 2.2-2.2 5.5-5.8-.8L24 45l-4.7-3.6-5.8.8-2.2-5.5-5.5-2.2.8-5.8L3 24l3.6-4.7-.8-5.8 5.5-2.2 2.2-5.5 5.8.8z"/><path fill="#CCFF90" d="M34.6 14.6L21 28.2l-5.6-5.6-2.8 2.8 8.4 8.4 16.4-16.4z"/></symbol><symbol viewBox="0 0 48 48" id="automatic"><path fill="#3F51B5" d="M39 43H9c-2.2 0-4-1.8-4-4V9c0-2.2 1.8-4 4-4h30c2.2 0 4 1.8 4 4v30c0 2.2-1.8 4-4 4z"/><path fill="#B3E5FC" d="M33.6 25.4c.1-.4.1-.9.1-1.4s0-.9-.1-1.4l2.8-2c.3-.2.4-.6.2-.9l-2.7-4.6c-.2-.3-.5-.4-.8-.3L30 16.3c-.7-.6-1.5-1-2.4-1.4l-.3-3.4c0-.3-.3-.6-.6-.6h-5.3c-.3 0-.6.3-.6.6l-.4 3.5c-.9.3-1.6.8-2.4 1.4L14.9 15c-.3-.1-.7 0-.8.3l-2.7 4.6c-.2.3-.1.7.2.9l2.8 2c-.1.4-.1.9-.1 1.4s0 .9.1 1.4l-2.8 2c-.3.2-.4.6-.2.9l2.7 4.6c.2.3.5.4.8.3L18 32c.7.6 1.5 1 2.4 1.4l.3 3.4c0 .3.3.6.6.6h5.3c.3 0 .6-.3.6-.6l.3-3.4c.9-.3 1.6-.8 2.4-1.4l3.1 1.4c.3.1.7 0 .8-.3l2.7-4.6c.2-.3.1-.7-.2-.9l-2.7-2.2zM24 29c-2.8 0-5-2.2-5-5s2.2-5 5-5 5 2.2 5 5-2.2 5-5 5z"/></symbol><symbol viewBox="0 0 48 48" id="calculator"><path fill="#616161" d="M40 16H8v24c0 2.2 1.8 4 4 4h24c2.2 0 4-1.8 4-4V16z"/><path fill="#424242" d="M36 4H12C9.8 4 8 5.8 8 8v9h32V8c0-2.2-1.8-4-4-4z"/><path fill="#9CCC65" d="M36 14H12c-.6 0-1-.4-1-1V8c0-.6.4-1 1-1h24c.6 0 1 .4 1 1v5c0 .6-.4 1-1 1z"/><g fill="#33691E"><path d="M33 10h2v2h-2zM29 10h2v2h-2z"/></g><path fill="#FF5252" d="M36 23h-3c-.6 0-1-.4-1-1v-2c0-.6.4-1 1-1h3c.6 0 1 .4 1 1v2c0 .6-.4 1-1 1z"/><g fill="#E0E0E0"><path d="M15 23h-3c-.6 0-1-.4-1-1v-2c0-.6.4-1 1-1h3c.6 0 1 .4 1 1v2c0 .6-.4 1-1 1zM22 23h-3c-.6 0-1-.4-1-1v-2c0-.6.4-1 1-1h3c.6 0 1 .4 1 1v2c0 .6-.4 1-1 1zM29 23h-3c-.6 0-1-.4-1-1v-2c0-.6.4-1 1-1h3c.6 0 1 .4 1 1v2c0 .6-.4 1-1 1zM15 29h-3c-.6 0-1-.4-1-1v-2c0-.6.4-1 1-1h3c.6 0 1 .4 1 1v2c0 .6-.4 1-1 1zM22 29h-3c-.6 0-1-.4-1-1v-2c0-.6.4-1 1-1h3c.6 0 1 .4 1 1v2c0 .6-.4 1-1 1zM29 29h-3c-.6 0-1-.4-1-1v-2c0-.6.4-1 1-1h3c.6 0 1 .4 1 1v2c0 .6-.4 1-1 1zM15 35h-3c-.6 0-1-.4-1-1v-2c0-.6.4-1 1-1h3c.6 0 1 .4 1 1v2c0 .6-.4 1-1 1zM22 35h-3c-.6 0-1-.4-1-1v-2c0-.6.4-1 1-1h3c.6 0 1 .4 1 1v2c0 .6-.4 1-1 1zM29 35h-3c-.6 0-1-.4-1-1v-2c0-.6.4-1 1-1h3c.6 0 1 .4 1 1v2c0 .6-.4 1-1 1zM15 41h-3c-.6 0-1-.4-1-1v-2c0-.6.4-1 1-1h3c.6 0 1 .4 1 1v2c0 .6-.4 1-1 1zM22 41h-3c-.6 0-1-.4-1-1v-2c0-.6.4-1 1-1h3c.6 0 1 .4 1 1v2c0 .6-.4 1-1 1zM29 41h-3c-.6 0-1-.4-1-1v-2c0-.6.4-1 1-1h3c.6 0 1 .4 1 1v2c0 .6-.4 1-1 1z"/></g><g fill="#BDBDBD"><path d="M36 29h-3c-.6 0-1-.4-1-1v-2c0-.6.4-1 1-1h3c.6 0 1 .4 1 1v2c0 .6-.4 1-1 1zM36 35h-3c-.6 0-1-.4-1-1v-2c0-.6.4-1 1-1h3c.6 0 1 .4 1 1v2c0 .6-.4 1-1 1zM36 41h-3c-.6 0-1-.4-1-1v-2c0-.6.4-1 1-1h3c.6 0 1 .4 1 1v2c0 .6-.4 1-1 1z"/></g></symbol><symbol viewBox="0 0 48 48" id="camera"><path fill="#512DA8" d="M33.9 12.1H14.2L17.6 7c.4-.6 1-.9 1.7-.9h9.6c.7 0 1.3.3 1.7.9l3.3 5.1z"/><path fill="#8667C4" d="M14 11H8V9.2C8 8.5 8.5 8 9.2 8h3.6c.7 0 1.2.5 1.2 1.2V11z"/><path fill="#5E35B1" d="M40 42H8c-2.2 0-4-1.8-4-4V14c0-2.2 1.8-4 4-4h32c2.2 0 4 1.8 4 4v24c0 2.2-1.8 4-4 4z"/><circle fill="#512DA8" cx="24" cy="26" r="12"/><circle fill="#B388FF" cx="24" cy="26" r="9"/><path fill="#C7A7FF" d="M29 23c-1.2-1.4-3-2.2-4.8-2.2-1.8 0-3.6.8-4.8 2.2-.5.5-.4 1.3.1 1.8s1.3.4 1.8-.1c1.5-1.7 4.3-1.7 5.8 0 .3.3.6.4 1 .4.3 0 .6-.1.9-.3.4-.4.5-1.3 0-1.8z"/><ellipse fill="#8667C4" cx="11" cy="13.5" rx="2" ry="1.5"/></symbol></svg>